<?xml version="1.0" encoding="UTF-8"?>
<svg viewBox="0 0 22.000002 22.000002" xmlns="http://www.w3.org/2000/svg">
 <g transform="translate(-361.99 -696.94)">
  <path transform="rotate(45)" d="m759.05 229.26h10.565a2.3006 2.3006 0 0 1 2.3006 2.3006v10.565a2.3006 2.3006 0 0 1 -2.3006 2.3006h-10.565a2.3006 2.3006 0 0 1 -2.3006 -2.3006v-10.565a2.3006 2.3006 0 0 1 2.3006 -2.3006" fill="#fff" stroke="#cf5e01" stroke-linecap="round" stroke-linejoin="round" stroke-width="2.454"/>
  <g transform="matrix(.15337 0 0 .15337 306.47 608.68)" fill="#cf5e01" font-family="SAF" font-size="88.88" letter-spacing="0" word-spacing="0">
   <path d="m451.4 647.89c6.666-4.5329 7.4659-15.287 5.155-21.331-4.2662-11.643-18.487-16.887-39.729-11.11-8.9768 2.5775-10.043 14.754-5.9549 18.842 0.0889 0.0889 0.35552 0.17776 0.79991 0.0889 2.933-1.4221 11.288-5.4217 13.865-5.8661 9.7768-1.5998 13.954 5.6883 11.11 10.488-5.4217 9.1546-14.843 5.0662-13.599 22.042 6.3105 4.2662 18.22 1.3332 18.487-2.222 0.53328-7.377 4.444-7.1104 9.8656-10.932m-28.53 23.109c1.1554 5.4216 1.1406 7.5906 4.4979 8.8291 3.555 1.3114 8.5943 1.444 12.389-0.82993 3.0035-1.7998 3.2258-7.2206 0.0889-11.021-1.4851-1.7993-18.576-5.4216-16.976 3.0219" fill="#cf5e01"/>
  </g>
 </g>
</svg>
